<svg xmlns="http://www.w3.org/2000/svg" xmlns:xlink="http://www.w3.org/1999/xlink" version="1.1" width="256" height="256" viewBox="0 0 256 256" xml:space="preserve">
<desc>Created with Fabric.js 1.7.22</desc>
<defs>
</defs>
<g transform="translate(128 128) scale(0.72 0.72)" style="">
	<g style="stroke: none; stroke-width: 0; stroke-dasharray: none; stroke-linecap: butt; stroke-linejoin: miter; stroke-miterlimit: 10; fill: none; fill-rule: nonzero; opacity: 1;" transform="translate(-175.05 -175.05000000000004) scale(3.89 3.89)" >
	<path d="M 50.405 80.334 H 10.686 c -1.058 0 -1.916 -0.858 -1.916 -1.916 s 0.858 -1.916 1.916 -1.916 h 39.719 c 14.7 0 26.658 -11.958 26.658 -26.658 S 65.104 23.185 50.405 23.185 H 10.686 c -1.058 0 -1.916 -0.858 -1.916 -1.916 c 0 -1.058 0.858 -1.916 1.916 -1.916 h 39.719 c 16.812 0 30.49 13.678 30.49 30.491 C 80.895 66.656 67.217 80.334 50.405 80.334 z" style="stroke: none; stroke-width: 1; stroke-dasharray: none; stroke-linecap: butt; stroke-linejoin: miter; stroke-miterlimit: 10; fill: lightgreen; fill-rule: nonzero; opacity: 1;" transform=" matrix(1 0 0 1 0 0) " stroke-linecap="round" />
	<path d="M 50.405 54.179 c -1.111 0 -2.222 -0.423 -3.068 -1.269 c -1.691 -1.692 -1.691 -4.443 -0.001 -6.134 c 0.001 -0.001 0.001 -0.001 0.002 -0.002 c 1.691 -1.689 4.444 -1.688 6.133 0 c 1.692 1.692 1.692 4.444 0.001 6.135 C 52.626 53.756 51.515 54.179 50.405 54.179 z" style="stroke: none; stroke-width: 1; stroke-dasharray: none; stroke-linecap: butt; stroke-linejoin: miter; stroke-miterlimit: 10; fill: lightgreen; fill-rule: nonzero; opacity: 1;" transform=" matrix(1 0 0 1 0 0) " stroke-linecap="round" />
	<path d="M 44.976 57.187 c -0.49 0 -0.981 -0.187 -1.355 -0.561 c -0.748 -0.748 -0.748 -1.961 0 -2.709 l 3.715 -3.715 c 0.748 -0.748 1.961 -0.748 2.709 0 c 0.748 0.748 0.748 1.961 0 2.709 l -3.715 3.715 C 45.957 57 45.467 57.187 44.976 57.187 z" style="stroke: none; stroke-width: 1; stroke-dasharray: none; stroke-linecap: butt; stroke-linejoin: miter; stroke-miterlimit: 10; fill: lightgreen; fill-rule: nonzero; opacity: 1;" transform=" matrix(1 0 0 1 0 0) " stroke-linecap="round" />
	<path d="M 52.117 50.046 c -0.49 0 -0.98 -0.187 -1.355 -0.561 c -0.748 -0.748 -0.748 -1.961 0 -2.709 l 13.699 -13.698 c 0.748 -0.748 1.961 -0.748 2.709 0 c 0.748 0.748 0.748 1.961 0 2.709 L 53.471 49.485 C 53.097 49.859 52.607 50.046 52.117 50.046 z" style="stroke: none; stroke-width: 1; stroke-dasharray: none; stroke-linecap: butt; stroke-linejoin: miter; stroke-miterlimit: 10; fill: lightgreen; fill-rule: nonzero; opacity: 1;" transform=" matrix(1 0 0 1 0 0) " stroke-linecap="round" />
	<path d="M 34.993 67.17 H 6.817 c -1.058 0 -1.916 -0.858 -1.916 -1.916 s 0.858 -1.916 1.916 -1.916 h 28.177 c 1.058 0 1.916 0.858 1.916 1.916 S 36.052 67.17 34.993 67.17 z" style="stroke: none; stroke-width: 1; stroke-dasharray: none; stroke-linecap: butt; stroke-linejoin: miter; stroke-miterlimit: 10; fill: lightgreen; fill-rule: nonzero; opacity: 1;" transform=" matrix(1 0 0 1 0 0) " stroke-linecap="round" />
	<path d="M 65.815 67.17 c -0.49 0 -0.98 -0.187 -1.355 -0.561 l -1.825 -1.825 c -0.748 -0.748 -0.748 -1.961 0 -2.709 c 0.748 -0.748 1.961 -0.748 2.709 0 l 1.825 1.825 c 0.748 0.748 0.748 1.961 0 2.709 C 66.796 66.983 66.306 67.17 65.815 67.17 z" style="stroke: none; stroke-width: 1; stroke-dasharray: none; stroke-linecap: butt; stroke-linejoin: miter; stroke-miterlimit: 10; fill: lightgreen; fill-rule: nonzero; opacity: 1;" transform=" matrix(1 0 0 1 0 0) " stroke-linecap="round" />
	<path d="M 34.993 36.348 H 6.817 c -1.058 0 -1.916 -0.858 -1.916 -1.916 c 0 -1.058 0.858 -1.916 1.916 -1.916 h 28.177 c 1.058 0 1.916 0.858 1.916 1.916 C 36.91 35.49 36.052 36.348 34.993 36.348 z" style="stroke: none; stroke-width: 1; stroke-dasharray: none; stroke-linecap: butt; stroke-linejoin: miter; stroke-miterlimit: 10; fill: lightgreen; fill-rule: nonzero; opacity: 1;" transform=" matrix(1 0 0 1 0 0) " stroke-linecap="round" />
	<path d="M 50.405 32.545 c -1.058 0 -1.916 -0.858 -1.916 -1.916 v -2.58 c 0 -1.058 0.858 -1.916 1.916 -1.916 c 1.058 0 1.916 0.858 1.916 1.916 v 2.58 C 52.321 31.687 51.463 32.545 50.405 32.545 z" style="stroke: none; stroke-width: 1; stroke-dasharray: none; stroke-linecap: butt; stroke-linejoin: miter; stroke-miterlimit: 10; fill: lightgreen; fill-rule: nonzero; opacity: 1;" transform=" matrix(1 0 0 1 0 0) " stroke-linecap="round" />
	<path d="M 50.405 73.553 c -1.058 0 -1.916 -0.858 -1.916 -1.916 v -2.579 c 0 -1.058 0.858 -1.916 1.916 -1.916 c 1.058 0 1.916 0.858 1.916 1.916 v 2.579 C 52.321 72.695 51.463 73.553 50.405 73.553 z" style="stroke: none; stroke-width: 1; stroke-dasharray: none; stroke-linecap: butt; stroke-linejoin: miter; stroke-miterlimit: 10; fill: lightgreen; fill-rule: nonzero; opacity: 1;" transform=" matrix(1 0 0 1 0 0) " stroke-linecap="round" />
	<path d="M 72.198 51.759 h -2.579 c -1.058 0 -1.916 -0.858 -1.916 -1.916 c 0 -1.058 0.858 -1.916 1.916 -1.916 h 2.579 c 1.058 0 1.916 0.858 1.916 1.916 C 74.114 50.902 73.256 51.759 72.198 51.759 z" style="stroke: none; stroke-width: 1; stroke-dasharray: none; stroke-linecap: butt; stroke-linejoin: miter; stroke-miterlimit: 10; fill: lightgreen; fill-rule: nonzero; opacity: 1;" transform=" matrix(1 0 0 1 0 0) " stroke-linecap="round" />
	<path d="M 31.19 51.759 H 1.916 C 0.858 51.759 0 50.902 0 49.843 c 0 -1.058 0.858 -1.916 1.916 -1.916 H 31.19 c 1.058 0 1.916 0.858 1.916 1.916 C 33.106 50.902 32.249 51.759 31.19 51.759 z" style="stroke: none; stroke-width: 1; stroke-dasharray: none; stroke-linecap: butt; stroke-linejoin: miter; stroke-miterlimit: 10; fill: lightgreen; fill-rule: nonzero; opacity: 1;" transform=" matrix(1 0 0 1 0 0) " stroke-linecap="round" />
	<path d="M 50.537 89.82 c -1.166 0 -2.112 -0.946 -2.112 -2.112 s 0.946 -2.112 2.112 -2.112 c 9.417 0 18.271 -3.667 24.931 -10.326 c 13.746 -13.748 13.746 -36.116 0 -49.862 c -5.367 -5.366 -12.162 -8.798 -19.651 -9.926 c -1.033 -0.156 -1.798 -1.043 -1.798 -2.088 V 9.321 c 0 -1.166 0.946 -2.112 2.112 -2.112 h 1.933 V 4.404 H 43.009 v 2.805 h 1.933 c 1.166 0 2.112 0.946 2.112 2.112 v 4.071 c 0 1.166 -0.946 2.112 -2.112 2.112 c -1.166 0 -2.112 -0.946 -2.112 -2.112 v -1.959 h -1.933 c -1.166 0 -2.112 -0.946 -2.112 -2.112 V 2.292 c 0 -1.166 0.946 -2.112 2.112 -2.112 h 19.279 c 1.166 0 2.112 0.946 2.112 2.112 v 7.029 c 0 1.166 -0.946 2.112 -2.112 2.112 h -1.933 v 0.184 c 7.678 1.515 14.634 5.227 20.211 10.804 c 15.394 15.394 15.394 40.442 0 55.836 C 70.997 85.713 61.082 89.82 50.537 89.82 z" style="stroke: none; stroke-width: 1; stroke-dasharray: none; stroke-linecap: butt; stroke-linejoin: miter; stroke-miterlimit: 10; fill: lightgreen; fill-rule: nonzero; opacity: 1;" transform=" matrix(1 0 0 1 0 0) " stroke-linecap="round" />
</g>
</g>
</svg>
